<?xml version="1.0" encoding="iso-8859-1"?><!-- Generator: Adobe Illustrator 22.1.0, SVG Export Plug-In . SVG Version: 6.00 Build 0)  --><svg xmlns="http://www.w3.org/2000/svg" xmlns:xlink="http://www.w3.org/1999/xlink" viewBox="0 0 100 100" width="1000px" height="1000px"><g><path style="fill:#C7EDE6;" d="M88.704,55.674c0.3-0.616,0.566-1.264,0.796-1.943c2.633-7.77-1.349-17.078-9.733-19.325   C78.86,23.023,70.86,15.214,61.826,13.881c-10.341-1.525-19.814,5.044-22.966,15.485c-3.799-1.346-7.501-1.182-10.99,0.857   c-1.583,0.732-3.031,1.812-4.33,3.233c-1.907,2.086-3.147,4.719-3.652,7.495c-0.748,0.118-1.483,0.236-2.176,0.484   c-4.04,1.449-6.589,4.431-7.288,8.923c-0.435,2.797,0.443,5.587,0.933,6.714c1.935,4.455,6.422,6.98,10.981,6.312   c0.227-0.033,0.557,0.069,0.752,0.233c0.241,7.12,3.698,13.417,8.884,17.014c8.321,5.772,19.027,3.994,25.781-3.921   c2.894,2.96,6.338,4.398,10.384,3.876c4.023-0.519,7.147-2.739,9.426-6.349c1.053,0.283,2.051,0.691,3.083,0.804   c4.042,0.442,7.324-1.165,9.732-4.8c0.922-1.391,1.793-3.194,1.793-6.354C92.174,60.631,90.881,57.664,88.704,55.674z"/></g><g><g><g><g><path style="fill:#FDFCEF;" d="M42.126,71.331c1.71,0,3.194,0,3.215,0c1.916,0,3.469-1.52,3.469-3.396      c0-1.636-1.182-3.001-2.756-3.323c0.018-0.143,0.031-0.288,0.031-0.436c0-1.942-1.609-3.517-3.593-3.517      c-1.172,0-2.209,0.551-2.865,1.401c-0.168-2.162-2.141-3.83-4.45-3.554c-1.688,0.202-3.084,1.479-3.395,3.116      c-0.1,0.525-0.089,1.034,0.01,1.512c-0.453-0.477-1.097-0.777-1.814-0.777c-1.313,0-2.385,1.001-2.47,2.265      c-0.596-0.129-1.245-0.121-1.928,0.13c-1.306,0.48-2.236,1.683-2.29,3.047c-0.077,1.937,1.504,3.532,3.467,3.532      c0.149,0,0.673,0,0.794,0h7.204 M36.245,71.331h0.327"/></g><g><path style="fill:#472B29;" d="M45.341,71.831h-3.215c-0.276,0-0.5-0.224-0.5-0.5s0.224-0.5,0.5-0.5h3.215      c1.637,0,2.969-1.299,2.969-2.896c0-1.362-0.991-2.554-2.355-2.832c-0.256-0.053-0.429-0.292-0.396-0.551      c0.015-0.124,0.026-0.249,0.026-0.376c0-1.663-1.388-3.017-3.093-3.017c-0.978,0-1.878,0.439-2.47,1.206      c-0.126,0.164-0.342,0.231-0.538,0.174c-0.198-0.06-0.34-0.234-0.355-0.44c-0.071-0.913-0.507-1.741-1.228-2.332      c-0.743-0.61-1.688-0.879-2.665-0.765c-1.475,0.177-2.693,1.292-2.963,2.712c-0.084,0.445-0.082,0.889,0.008,1.317      c0.046,0.22-0.06,0.441-0.257,0.546c-0.2,0.103-0.441,0.063-0.595-0.1c-0.381-0.4-0.896-0.621-1.452-0.621      c-1.037,0-1.903,0.79-1.971,1.799c-0.01,0.146-0.082,0.279-0.198,0.366c-0.117,0.088-0.264,0.12-0.407,0.089      c-0.571-0.124-1.11-0.087-1.648,0.111c-1.13,0.414-1.918,1.458-1.963,2.597c-0.032,0.782,0.252,1.526,0.798,2.096      c0.568,0.591,1.338,0.916,2.168,0.916h7.998c0.276,0,0.5,0.224,0.5,0.5s-0.224,0.5-0.5,0.5h-7.998      c-1.089,0-2.142-0.446-2.889-1.224c-0.737-0.768-1.119-1.771-1.077-2.828c0.061-1.538,1.112-2.943,2.617-3.496      c0.549-0.201,1.113-0.277,1.688-0.228c0.332-1.269,1.507-2.198,2.882-2.198c0.431,0,0.854,0.094,1.241,0.269      c0.01-0.198,0.034-0.397,0.072-0.597c0.35-1.844,1.924-3.291,3.826-3.519c1.254-0.154,2.463,0.2,3.418,0.983      c0.668,0.548,1.147,1.255,1.399,2.048c0.718-0.568,1.61-0.882,2.558-0.882c2.257,0,4.093,1.802,4.093,4.017      c0,0.02,0,0.04-0.001,0.06c1.604,0.519,2.727,2.011,2.727,3.699C49.31,70.084,47.53,71.831,45.341,71.831z M36.571,71.831      h-0.326c-0.276,0-0.5-0.224-0.5-0.5s0.224-0.5,0.5-0.5h0.326c0.276,0,0.5,0.224,0.5,0.5S36.847,71.831,36.571,71.831z"/></g></g><g><path style="fill:#472B29;" d="M43.791,66.539c-0.018,0-0.036-0.002-0.055-0.006c-0.135-0.03-0.22-0.164-0.189-0.299     c0.034-0.152,0.087-0.3,0.155-0.44c0.557-1.123,2.088-1.537,3.41-0.924c0.126,0.058,0.181,0.206,0.122,0.331     c-0.058,0.125-0.208,0.18-0.331,0.122c-1.084-0.501-2.316-0.189-2.753,0.692c-0.051,0.104-0.09,0.215-0.115,0.328     C44.008,66.46,43.905,66.539,43.791,66.539z"/></g></g><g><g><path style="fill:#472B29;" d="M39.106,71.831h-1.005c-0.276,0-0.5-0.224-0.5-0.5s0.224-0.5,0.5-0.5h1.005     c0.276,0,0.5,0.224,0.5,0.5S39.382,71.831,39.106,71.831z"/></g></g></g><g><g><path style="fill:#F9E65C;" d="M51.49,77.3c-0.023,0-0.123-0.016-0.388-0.214c-1.151-0.867-2.305-1.73-3.458-2.593    c-2.59-1.938-5.268-3.939-7.864-5.952c-4.485-3.475-7.387-8.106-8.623-13.769c-0.462-2.117-0.459-4.234-0.457-6.476l0.009-15.354    c0-0.318,0.022-0.445,0.036-0.492c0.003,0.006,0.016,0.008,0.041,0.008c0.062,0,0.198-0.015,0.44-0.021    c6.652-0.157,12.229-1.847,17.051-5.163c0.828-0.57,1.589-1.23,2.324-1.869l0.608-0.524c0.207-0.177,0.305-0.182,0.315-0.182    c0.031,0,0.104,0.034,0.205,0.132c3.144,3.022,6.981,5.131,11.732,6.445c2.376,0.658,4.719,1.018,6.961,1.068    c0.284,0.006,0.569,0.026,0.854,0.046c0.227,0.016,0.453,0.031,0.681,0.041c0.214,0.01,0.291,0.042,0.308,0.051    c-0.005,0.004,0.028,0.089,0.028,0.328c0.004,2.282,0.002,9.303,0.002,9.303c-0.006,0.038-0.01,0.077-0.01,0.117    c0,0.875,0.004,1.75,0.008,2.624c0.008,1.923,0.017,3.844-0.016,5.765c-0.086,5.271-1.907,10.127-5.411,14.434    c-1.693,2.082-3.797,3.65-6.025,5.311l-0.326,0.244c-2.049,1.531-4.093,3.067-6.137,4.604l-2.47,1.856    C51.623,77.283,51.517,77.3,51.49,77.3z"/></g><g><path style="fill:#472B29;" d="M51.486,25.566c3.183,2.982,7.043,5.073,11.789,6.386c2.469,0.684,4.803,1.042,7.132,1.093    c0.276,0.006,0.551,0.026,0.826,0.045c0.12,0.008,0.24,0.017,0.36,0.024c0.003,2.251,0.003,4.502,0.002,6.753l0,2.199    c-0.006,0.054-0.01,0.109-0.01,0.166c0,0.87,0.004,1.74,0.007,2.61c0.008,1.893,0.016,3.85-0.016,5.767    c-0.083,5.108-1.851,9.819-5.254,14.003c-1.638,2.014-3.706,3.556-5.897,5.189l-0.33,0.247c-2.05,1.531-4.094,3.068-6.138,4.605    l-2.464,1.852c-1.154-0.869-2.311-1.734-3.468-2.6c-2.575-1.926-5.238-3.917-7.818-5.917c-4.352-3.372-7.168-7.868-8.368-13.365    c-0.446-2.043-0.443-4.122-0.441-6.324l0-0.146c0.004-3.607,0.006-7.214,0.007-10.822l0.002-4.198    c6.721-0.186,12.369-1.915,17.264-5.283c0.862-0.593,1.639-1.268,2.391-1.919C51.204,25.81,51.345,25.688,51.486,25.566     M51.525,24c-0.247,0-0.501,0.12-0.77,0.349c-0.941,0.803-1.858,1.649-2.875,2.349c-5.002,3.442-10.636,4.897-16.671,5.041    c-1.013,0.024-1.2,0.199-1.2,1.204c-0.002,5.069-0.002,10.14-0.008,15.21c-0.002,2.268-0.016,4.53,0.473,6.769    c1.259,5.766,4.174,10.529,8.878,14.173c3.739,2.897,7.551,5.703,11.331,8.549C50.996,77.881,51.242,78,51.49,78    c0.253,0,0.508-0.124,0.838-0.371c2.868-2.154,5.731-4.313,8.605-6.46c2.31-1.724,4.641-3.418,6.475-5.674    c3.536-4.346,5.477-9.273,5.568-14.863c0.046-2.799,0.008-5.6,0.008-8.4c0.002,0,0.006,0,0.01-0.001    c0-3.141,0.002-6.28-0.002-9.421c-0.001-0.774-0.269-1.042-1.006-1.075c-0.517-0.023-1.032-0.077-1.549-0.088    c-2.311-0.051-4.573-0.429-6.79-1.043c-4.314-1.193-8.198-3.164-11.434-6.275C51.984,24.106,51.757,24,51.525,24L51.525,24z"/></g></g><g><path style="fill:#77CBD2;" d="M68.988,43.854c0,2.282,0.031,4.564-0.006,6.845c-0.074,4.555-1.655,8.57-4.532,12.111   c-1.492,1.838-3.392,3.218-5.271,4.624c-2.339,1.75-4.67,3.509-7.005,5.264c-0.531,0.399-0.823,0.403-1.34,0.013   c-3.077-2.319-6.179-4.606-9.223-6.966c-3.828-2.97-6.202-6.851-7.227-11.548c-0.398-1.824-0.387-3.668-0.384-5.516   c0.005-4.132,0.005-8.263,0.006-12.395c0-0.819,0.152-0.962,0.977-0.981c4.911-0.116,9.498-1.303,13.569-4.106   c0.828-0.57,1.574-1.259,2.34-1.914c0.425-0.362,0.802-0.39,1.189-0.018c2.634,2.535,5.795,4.141,9.307,5.113   c1.805,0.5,3.646,0.808,5.527,0.85c0.42,0.01,0.839,0.054,1.261,0.072c0.6,0.027,0.818,0.245,0.818,0.876   c0.004,2.559,0.001,5.118,0.001,7.677C68.993,43.854,68.99,43.854,68.988,43.854z"/></g><g><g><defs><path id="SVGID_1_" d="M35.026,44.386L35.026,44.386c0-2.423-0.004-4.983,0-7.406c0.001-0.598,0.165-0.877,0.752-0.904     c0.411-0.018,0.821-0.06,1.232-0.068c1.838-0.041,3.67-0.411,5.435-0.883c3.43-0.921,6.13-2.345,8.733-4.676     c0.149-0.134,0.516-0.423,0.664-0.449v42c-0.39-0.062-5.088-3.719-7.373-5.375c-1.837-1.331-3.691-2.638-5.149-4.377     c-2.812-3.353-4.234-7.13-4.305-11.443C34.976,48.646,35.026,46.547,35.026,44.386z"/></defs><clipPath id="SVGID_2_"><use xlink:href="#SVGID_1_" style="overflow:visible;"/></clipPath><g style="clip-path:url(#SVGID_2_);"><g><polygon style="fill:#00A5A5;" points="64.965,47.716 67.988,44.824 42.761,20.696 39.738,23.588     "/></g><g><polygon style="fill:#00A5A5;" points="60.517,56.347 63.54,53.455 38.313,29.326 35.289,32.219     "/></g><g><polygon style="fill:#00A5A5;" points="56.067,64.977 59.092,62.085 33.864,37.956 30.841,40.849     "/></g><g><polygon style="fill:#00A5A5;" points="51.317,74.004 54.342,71.112 29.114,46.984 26.091,49.876     "/></g></g></g></g><g><path style="fill:#472B29;" d="M51.5,72c-0.276,0-0.5-0.224-0.5-0.5v-24c0-0.276,0.224-0.5,0.5-0.5s0.5,0.224,0.5,0.5v24   C52,71.776,51.776,72,51.5,72z"/></g><g><path style="fill:#472B29;" d="M51.5,40c-0.276,0-0.5-0.224-0.5-0.5V33c0-0.276,0.224-0.5,0.5-0.5S52,32.724,52,33v6.5   C52,39.776,51.776,40,51.5,40z"/></g><g><path style="fill:#472B29;" d="M51.5,45c-0.276,0-0.5-0.224-0.5-0.5v-3c0-0.276,0.224-0.5,0.5-0.5s0.5,0.224,0.5,0.5v3   C52,44.776,51.776,45,51.5,45z"/></g><g><g><path style="fill:#FFFFFF;" d="M16.5,51h-10C6.224,51,6,50.776,6,50.5S6.224,50,6.5,50h10c0.276,0,0.5,0.224,0.5,0.5    S16.777,51,16.5,51z"/></g><g><path style="fill:#FFFFFF;" d="M19.5,51h-1c-0.276,0-0.5-0.224-0.5-0.5s0.224-0.5,0.5-0.5h1c0.276,0,0.5,0.224,0.5,0.5    S19.777,51,19.5,51z"/></g><g><path style="fill:#FFFFFF;" d="M24.491,53H15.5c-0.276,0-0.5-0.224-0.5-0.5s0.224-0.5,0.5-0.5h8.991c0.276,0,0.5,0.224,0.5,0.5    S24.767,53,24.491,53z"/></g><g><path style="fill:#FFFFFF;" d="M13.5,53h-1c-0.276,0-0.5-0.224-0.5-0.5s0.224-0.5,0.5-0.5h1c0.276,0,0.5,0.224,0.5,0.5    S13.777,53,13.5,53z"/></g><g><path style="fill:#FFFFFF;" d="M10.5,53h-2C8.224,53,8,52.776,8,52.5S8.224,52,8.5,52h2c0.276,0,0.5,0.224,0.5,0.5    S10.777,53,10.5,53z"/></g><g><path style="fill:#FFFFFF;" d="M16.5,55h-2c-0.276,0-0.5-0.224-0.5-0.5s0.224-0.5,0.5-0.5h2c0.276,0,0.5,0.224,0.5,0.5    S16.776,55,16.5,55z"/></g><g><path style="fill:#FFFFFF;" d="M19.5,46c-0.177,0-0.823,0-1,0c-0.276,0-0.5,0.224-0.5,0.5c0,0.276,0.224,0.5,0.5,0.5    c0.177,0,0.823,0,1,0c0.276,0,0.5-0.224,0.5-0.5C20,46.224,19.776,46,19.5,46z"/></g><g><path style="fill:#FFFFFF;" d="M19.5,48c-0.177,0-4.823,0-5,0c-0.276,0-0.5,0.224-0.5,0.5c0,0.276,0.224,0.5,0.5,0.5    c0.177,0,4.823,0,5,0c0.276,0,0.5-0.224,0.5-0.5C20,48.224,19.776,48,19.5,48z"/></g><g><path style="fill:#FFFFFF;" d="M24.5,50c-0.177,0-2.823,0-3,0c-0.276,0-0.5,0.224-0.5,0.5c0,0.276,0.224,0.5,0.5,0.5    c0.177,0,2.823,0,3,0c0.276,0,0.5-0.224,0.5-0.5C25,50.224,24.776,50,24.5,50z"/></g></g><g><g><path style="fill:#FFFFFF;" d="M69.5,24h-10c-0.276,0-0.5-0.224-0.5-0.5s0.224-0.5,0.5-0.5h10c0.276,0,0.5,0.224,0.5,0.5    S69.776,24,69.5,24z"/></g><g><path style="fill:#FFFFFF;" d="M73.5,24h-2c-0.276,0-0.5-0.224-0.5-0.5s0.224-0.5,0.5-0.5h2c0.276,0,0.5,0.224,0.5,0.5    S73.776,24,73.5,24z"/></g><g><path style="fill:#FFFFFF;" d="M78.5,26h-10c-0.276,0-0.5-0.224-0.5-0.5s0.224-0.5,0.5-0.5h10c0.276,0,0.5,0.224,0.5,0.5    S78.777,26,78.5,26z"/></g><g><path style="fill:#FFFFFF;" d="M66.5,26h-1c-0.276,0-0.5-0.224-0.5-0.5s0.224-0.5,0.5-0.5h1c0.276,0,0.5,0.224,0.5,0.5    S66.776,26,66.5,26z"/></g><g><path style="fill:#FFFFFF;" d="M63.47,26H61.5c-0.276,0-0.5-0.224-0.5-0.5s0.224-0.5,0.5-0.5h1.97c0.276,0,0.5,0.224,0.5,0.5    S63.746,26,63.47,26z"/></g><g><path style="fill:#FFFFFF;" d="M72.5,22h-5c-0.276,0-0.5-0.224-0.5-0.5s0.224-0.5,0.5-0.5h5c0.276,0,0.5,0.224,0.5,0.5    S72.777,22,72.5,22z"/></g><g><path style="fill:#FFFFFF;" d="M69.5,28h-2c-0.276,0-0.5-0.224-0.5-0.5s0.224-0.5,0.5-0.5h2c0.276,0,0.5,0.224,0.5,0.5    S69.776,28,69.5,28z"/></g></g><g><path style="fill:#472B29;" d="M51.493,30.087c2.592,2.46,5.743,4.18,9.628,5.256c1.997,0.554,3.885,0.843,5.771,0.886   c0.223,0.005,0.445,0.021,0.668,0.037c0.145,0.01,0.29,0.02,0.435,0.028c0.002,1.788,0.002,3.576,0.001,5.364l0,1.196h-0.008v1   c0,0.715,0.003,1.43,0.006,2.144c0.007,1.537,0.013,3.127-0.012,4.685c-0.068,4.194-1.518,8.063-4.308,11.497   c-1.338,1.647-3.021,2.905-4.804,4.237l-0.29,0.217c-1.56,1.167-3.117,2.338-4.674,3.51l-2.333,1.755   c-0.031,0.023-0.057,0.042-0.079,0.057c-0.017-0.012-0.036-0.026-0.058-0.042c-0.933-0.704-1.869-1.404-2.805-2.105   c-2.11-1.58-4.293-3.213-6.407-4.853c-3.569-2.769-5.878-6.46-6.863-10.971c-0.367-1.681-0.364-3.384-0.361-5.187l0-0.116   c0.004-3.313,0.005-6.625,0.006-9.937l0.001-2.441c0,0,0,0,0,0c5.5-0.13,10.116-1.531,14.112-4.282   c0.698-0.48,1.331-1.03,1.942-1.562C51.205,30.335,51.349,30.21,51.493,30.087 M51.52,29c-0.202,0-0.408,0.098-0.627,0.285   c-0.766,0.655-1.512,1.344-2.34,1.914c-4.071,2.803-8.657,3.99-13.569,4.106c-0.824,0.02-0.977,0.163-0.977,0.981   c-0.001,4.132-0.001,8.263-0.006,12.395c-0.002,1.848-0.014,3.691,0.384,5.516c1.025,4.697,3.399,8.579,7.227,11.548   c3.043,2.36,6.146,4.647,9.223,6.966C51.09,72.904,51.291,73,51.492,73c0.206,0,0.414-0.101,0.682-0.302   c2.335-1.755,4.666-3.514,7.005-5.264c1.879-1.406,3.778-2.786,5.271-4.624c2.877-3.541,4.458-7.556,4.532-12.111   c0.037-2.281,0.006-4.563,0.006-6.845c0.002,0,0.005,0,0.007,0.001c0-2.559,0.002-5.119-0.001-7.677   c0-0.631-0.218-0.849-0.818-0.876c-0.421-0.018-0.84-0.063-1.261-0.072c-1.882-0.042-3.722-0.35-5.527-0.85   c-3.512-0.973-6.673-2.578-9.307-5.113C51.894,29.086,51.709,29,51.52,29L51.52,29z"/></g><g><g><g><path style="fill:#FDFCEF;" d="M73.07,59.291c0,0,10.616,0,10.681,0c2.452,0,4.439-1.987,4.439-4.439     c0-2.139-1.513-3.924-3.527-4.344c0.023-0.187,0.039-0.377,0.039-0.57c0-2.539-2.058-4.598-4.597-4.598     c-1.499,0-2.827,0.721-3.666,1.831c-0.215-2.826-2.739-5.007-5.693-4.646c-2.16,0.264-3.947,1.934-4.344,4.073     c-0.127,0.686-0.114,1.352,0.013,1.977c-0.579-0.624-1.403-1.016-2.322-1.016c-1.68,0-3.052,1.308-3.16,2.961     c-0.763-0.169-1.593-0.158-2.467,0.17c-1.671,0.627-2.861,2.2-2.93,3.983c-0.099,2.533,1.925,4.617,4.435,4.617     c0.191,0,0.861,0,1.015,0h9.218"/></g><g><path style="fill:#472B29;" d="M83.751,59.791H73.07c-0.276,0-0.5-0.224-0.5-0.5s0.224-0.5,0.5-0.5h10.681     c2.172,0,3.938-1.767,3.938-3.938c0-1.855-1.315-3.477-3.129-3.855c-0.255-0.053-0.426-0.293-0.394-0.552     c0.021-0.167,0.035-0.336,0.035-0.508c0-2.26-1.838-4.098-4.098-4.098c-1.292,0-2.482,0.595-3.268,1.633     c-0.125,0.165-0.342,0.235-0.539,0.178c-0.2-0.059-0.342-0.234-0.358-0.441c-0.093-1.238-0.699-2.4-1.662-3.19     c-0.973-0.798-2.211-1.151-3.472-0.997c-1.946,0.238-3.556,1.746-3.913,3.669c-0.111,0.601-0.107,1.201,0.012,1.785     c0.044,0.22-0.062,0.441-0.262,0.544c-0.197,0.104-0.442,0.06-0.595-0.104c-0.513-0.553-1.207-0.856-1.955-0.856     c-1.4,0-2.569,1.096-2.661,2.493c-0.01,0.146-0.082,0.28-0.199,0.368c-0.116,0.087-0.265,0.117-0.408,0.088     c-0.755-0.168-1.469-0.117-2.183,0.149c-1.498,0.563-2.546,1.984-2.606,3.535c-0.043,1.084,0.347,2.109,1.097,2.889     c0.749,0.779,1.758,1.209,2.839,1.209h10.233c0.276,0,0.5,0.224,0.5,0.5s-0.224,0.5-0.5,0.5H59.97     c-1.355,0-2.62-0.538-3.56-1.516c-0.94-0.977-1.429-2.263-1.376-3.621c0.077-1.948,1.385-3.729,3.255-4.432     c0.721-0.271,1.464-0.362,2.221-0.279c0.362-1.654,1.842-2.884,3.582-2.884c0.603,0,1.193,0.151,1.72,0.432     c0.004-0.327,0.036-0.655,0.098-0.983c0.436-2.347,2.399-4.188,4.774-4.479c1.539-0.19,3.041,0.243,4.227,1.217     c0.899,0.737,1.543,1.741,1.847,2.85c0.919-0.808,2.095-1.256,3.347-1.256c2.811,0,5.098,2.287,5.098,5.098     c0,0.064-0.002,0.128-0.004,0.192c2.047,0.628,3.491,2.547,3.491,4.723C88.689,57.575,86.473,59.791,83.751,59.791z"/></g></g><g><g><path style="fill:#FDFCEF;" d="M70.497,49.512c-1.642-0.108-3.055,1.026-3.157,2.533c-0.013,0.187-0.004,0.371,0.023,0.55     c-0.317-0.358-0.786-0.6-1.324-0.636c-0.985-0.065-1.836,0.586-1.959,1.471c-0.179-0.049-0.366-0.082-0.56-0.095     c-1.437-0.094-2.674,0.898-2.762,2.216"/></g><g><path style="fill:#472B29;" d="M60.758,55.802c-0.006,0-0.011,0-0.017-0.001c-0.138-0.009-0.242-0.128-0.232-0.266     c0.098-1.454,1.448-2.562,3.028-2.449c0.116,0.007,0.234,0.022,0.353,0.044c0.26-0.878,1.168-1.504,2.166-1.42     c0.376,0.024,0.729,0.138,1.034,0.329c0-0.004,0-0.008,0.001-0.011c0.11-1.643,1.643-2.91,3.423-2.766     c0.138,0.009,0.242,0.128,0.232,0.266c-0.008,0.132-0.118,0.233-0.249,0.233c-0.005,0-0.011,0-0.017-0.001     c-1.478-0.086-2.798,0.933-2.892,2.301c-0.011,0.164-0.004,0.331,0.021,0.495c0.017,0.109-0.04,0.218-0.141,0.265     c-0.1,0.046-0.22,0.022-0.293-0.061c-0.29-0.326-0.7-0.522-1.154-0.553c-0.855-0.036-1.589,0.498-1.694,1.256     c-0.011,0.071-0.051,0.135-0.11,0.175s-0.132,0.052-0.203,0.032c-0.171-0.046-0.343-0.075-0.511-0.087     c-1.306-0.073-2.418,0.807-2.497,1.984C60.999,55.701,60.889,55.802,60.758,55.802z"/></g></g><g><g><path style="fill:#FDFCEF;" d="M85.548,51.027c-1.543-0.727-3.327-0.213-3.985,1.15c-0.082,0.169-0.142,0.344-0.182,0.521"/></g><g><path style="fill:#472B29;" d="M81.38,52.949c-0.018,0-0.036-0.002-0.055-0.006c-0.135-0.03-0.22-0.164-0.189-0.299     c0.044-0.195,0.111-0.389,0.2-0.574c0.717-1.484,2.654-2.054,4.317-1.269c0.125,0.06,0.179,0.208,0.12,0.333     c-0.06,0.126-0.209,0.176-0.333,0.12c-1.418-0.67-3.056-0.205-3.653,1.031c-0.072,0.151-0.128,0.31-0.163,0.468     C81.598,52.87,81.495,52.949,81.38,52.949z"/></g></g></g></svg>